<svg xmlns="http://www.w3.org/2000/svg" viewBox="0 0 800 600" width="800" height="600">
  <!-- 농구 선수 실루엣 -->
  <path d="M400,100 C430,100 455,125 455,155 C455,185 430,210 400,210 C370,210 345,185 345,155 C345,125 370,100 400,100 Z" fill="#ffffff" />
  <path d="M350,220 L450,220 L470,350 L430,500 L410,500 L390,400 L370,500 L350,500 L350,220 Z" fill="#ffffff" />
  <path d="M470,350 L530,280 L520,340 L560,300 L550,370 L470,420 L470,350 Z" fill="#ffffff" />
  <path d="M350,220 L290,280 L300,340 L260,300 L270,370 L350,420 L350,220 Z" fill="#ffffff" />
  <!-- 농구공 -->
  <circle cx="550" cy="210" r="50" fill="#ffaa00" stroke="#ffffff" stroke-width="2" />
  <path d="M550,160 C530,180 530,240 550,260 M500,210 C520,230 580,230 600,210" stroke="#ffffff" stroke-width="2" fill="none" />
</svg> 