<?xml version="1.0" encoding="UTF-8"?>
<svg version="1.1" xmlns="http://www.w3.org/2000/svg" width="512" height="512">
<path d="M0 0 C168.96 0 337.92 0 512 0 C512 168.96 512 337.92 512 512 C343.04 512 174.08 512 0 512 C0 343.04 0 174.08 0 0 Z " fill="#FEFEFE" transform="translate(0,0)"/>
<path d="M0 0 C63.03 0 126.06 0 191 0 C190.30310208 3.48448959 189.74863664 5.92202392 188.41210938 9.0637207 C188.08601685 9.83668488 187.75992432 10.60964905 187.4239502 11.40603638 C187.06748413 12.23755219 186.71101807 13.06906799 186.34375 13.92578125 C185.96955933 14.80902069 185.59536865 15.69226013 185.20983887 16.6022644 C183.97768993 19.50759478 182.73887336 22.41003141 181.5 25.3125 C180.6388977 27.33941902 179.77822579 29.36652093 178.91796875 31.39379883 C176.71090038 36.59209453 174.49845292 41.78808231 172.28466797 46.98352051 C169.93042281 52.5114331 167.58237463 58.0419788 165.23536682 63.57296753 C163.45317243 67.77176884 161.6669338 71.96874044 159.87084961 76.16162109 C156.77652256 83.39370527 153.72320015 90.63099079 150.84765625 97.953125 C150.37005859 99.14784424 149.89246094 100.34256348 149.40039062 101.57348633 C148.55168781 103.70747831 147.72356932 105.84986593 146.92382812 108.00268555 C143.87565548 115.59762857 139.35219821 119.96372874 133 125 C131.27082695 126.41665887 129.54165955 127.83332465 127.8125 129.25 C126.90113281 129.98734375 125.98976563 130.7246875 125.05078125 131.484375 C121.47943501 134.42924949 117.98785513 137.45716976 114.5 140.5 C110.21793708 144.23415168 105.91668165 147.92459104 101.5 151.5 C96.46651459 155.57757127 91.57666691 159.80505915 86.69189453 164.05810547 C80.51349346 169.43464562 74.26357926 174.72321384 68 180 C60.95054417 185.94385772 53.90491066 191.88779811 47 198 C45.74654138 194.23962415 46.44056089 192.95488799 47.69970703 189.2355957 C48.09868698 188.0422612 48.49766693 186.8489267 48.90873718 185.61943054 C49.35828687 184.30483218 49.80798298 182.99028388 50.2578125 181.67578125 C50.71846164 180.30824594 51.17826895 178.94042681 51.63728333 177.57234192 C52.6157678 174.66104821 53.59958688 171.75163505 54.58761597 168.84356689 C56.12403291 164.32018263 57.64663713 159.7922333 59.16625977 155.26318359 C61.17579481 149.27641094 63.18856622 143.29074306 65.20458984 137.30615234 C68.5311936 127.42790927 71.84936569 117.54704536 75.10565186 107.64535522 C75.65773873 105.97262801 76.21389815 104.30123915 76.77423096 102.6312561 C77.5348736 100.36398138 78.28280264 98.09291585 79.02734375 95.8203125 C79.43718506 94.58555176 79.84702637 93.35079102 80.26928711 92.07861328 C80.97474573 89.10640037 81.20532147 87.75714837 80 85 C77.93792087 82.61116867 77.93792087 82.61116867 75.375 80.25 C72.32022376 77.33621343 69.4480541 74.40494007 66.6953125 71.203125 C62.84197908 66.74688907 58.70120061 62.62604497 54.5 58.5 C50.37675426 54.45051536 46.299883 50.41641052 42.53125 46.03125 C38.58812608 41.44821339 34.30889602 37.23659911 30 33 C25.03898758 28.12222604 20.24412831 23.20688163 15.71044922 17.92871094 C12.22915843 14.00319035 8.40538354 10.40626738 4.63476562 6.76171875 C4.03470703 6.17261719 3.43464844 5.58351563 2.81640625 4.9765625 C2.27443604 4.45143066 1.73246582 3.92629883 1.17407227 3.38525391 C0 2 0 2 0 0 Z " fill="#020202" transform="translate(242,106)"/>
<path d="M0 0 C0.80991394 0.28918808 1.61982788 0.57837616 2.45428467 0.87632751 C5.56043597 2.27039345 7.62057045 3.54476129 10 6 C11.68414298 11.42867313 11.72563544 16.81525133 11.8515625 22.46484375 C11.9228203 24.10203743 11.99828207 25.73905299 12.07772827 27.37586975 C12.27517628 31.68466276 12.41395339 35.99344176 12.54089355 40.30480957 C12.67948312 44.64292453 12.87607953 48.97835814 13.06640625 53.31445312 C13.42751008 61.8439834 13.75510287 70.37295174 13.9475174 78.90812302 C13.98286612 80.31706958 14.02565266 81.72584689 14.07543182 83.13435745 C14.14772091 85.18136507 14.19799653 87.22788265 14.24365234 89.27563477 C14.27808441 90.44755875 14.31251648 91.61948273 14.34799194 92.82691956 C13.82154047 97.62724008 11.43673522 100.27591774 8.41796875 103.8984375 C-7.39341853 124.1799262 -14.33244867 151.95072041 -14.44677734 177.30761719 C-14.5817584 182.66676605 -16.08904791 185.64712379 -19 190 C-22.75868334 193.42703481 -26.62770055 193.52380692 -31.51953125 193.3359375 C-35.36432449 192.81522534 -38.04060633 191.38052326 -41 189 C-41.72058594 188.42507813 -42.44117188 187.85015625 -43.18359375 187.2578125 C-50.15756004 181.02475663 -53.6976819 173.59027442 -57 165 C-57 164.34 -57 163.68 -57 163 C-57.66 163.33 -58.32 163.66 -59 164 C-69.21530231 165.0181919 -69.21530231 165.0181919 -73.625 162.125 C-76.10778385 159.90356182 -76.8812287 159.08257122 -77.23828125 155.828125 C-77.43925119 148.84706381 -76.09026157 145.31099454 -71.25 140.125 C-70.8375 139.75375 -70.425 139.3825 -70 139 C-65.38226158 140.53924614 -64.42585496 143.86949021 -62 148 C-62 144.37 -62 140.74 -62 137 C-63.03125 136.938125 -64.0625 136.87625 -65.125 136.8125 C-69.92952697 135.80509918 -71.53529968 134.38220746 -75 131 C-76.63851847 127.72296306 -76.66601856 124.52743164 -76 121 C-73.667701 116.77824359 -71.01006833 113.67337889 -67 111 C-64.9375 111.1875 -64.9375 111.1875 -63 112 C-62.34 112.99 -61.68 113.98 -61 115 C-60.68546875 113.97261719 -60.3709375 112.94523437 -60.046875 111.88671875 C-59.61491504 110.48687677 -59.18259765 109.08714505 -58.75 107.6875 C-58.41101685 106.58317627 -58.41101685 106.58317627 -58.06518555 105.45654297 C-56.81241243 101.42457883 -55.43100856 97.52774329 -53.8125 93.625 C-50.96093124 86.10932686 -50.66446813 77.94738853 -50 70 C-51.97550456 70.04272461 -53.95100911 70.08544922 -55.92651367 70.12817383 C-59.83149307 69.88678513 -62.63012129 67.89750674 -65.8125 65.8125 C-67.80481604 62.77159657 -68.11087218 59.54790985 -68 56 C-66.559372 51.45064842 -64.92052457 47.8512906 -61 45 C-59 44.8125 -59 44.8125 -57 46 C-55.43067489 48.25724844 -54.25384352 50.53709308 -53 53 C-52.67 49.37 -52.34 45.74 -52 42 C-53.216875 41.9175 -54.43375 41.835 -55.6875 41.75 C-59.79506915 41.24747824 -62.03023215 39.96976785 -65 37 C-66.7381808 33.52363841 -66.45508953 29.800959 -66 26 C-63.61962308 21.14769321 -60.677173 18.64361952 -56 16 C-55.34 16 -54.68 16 -54 16 C-53.01 19.3 -52.02 22.6 -51 26 C-50.34 26 -49.68 26 -49 26 C-48.979375 25.0925 -48.95875 24.185 -48.9375 23.25 C-47.58878922 14.14158335 -41.13398424 6.18362843 -34.17578125 0.55859375 C-23.69343256 -6.95030594 -11.28772978 -4.85242637 0 0 Z " fill="#010101" transform="translate(208,279)"/>
<path d="M0 0 C20.79 0 41.58 0 63 0 C61.649683 6.07642652 60.21368835 11.78780088 58.23779297 17.64306641 C57.96749771 18.45599655 57.69720245 19.2689267 57.41871643 20.10649109 C56.53088082 22.77298532 55.63664151 25.43728181 54.7421875 28.1015625 C54.11367173 29.98404385 53.48551475 31.86664503 52.85769653 33.74935913 C51.54068279 37.6958072 50.22074184 41.64125902 48.8984375 45.5859375 C47.2269442 50.57241312 45.5605575 55.56057496 43.89597797 60.54936218 C40.75852071 69.95240034 37.60752441 79.35073107 34.4388628 88.74330139 C32.76885264 93.69820528 31.12233211 98.65987067 29.49487305 103.62890625 C28.81079087 105.68242721 28.126348 107.73582808 27.44140625 109.7890625 C27.16662445 110.65109283 26.89184265 111.51312317 26.60873413 112.40127563 C23.96333066 120.22250791 19.19836175 125.75183997 13.43554688 131.52392578 C11.23642983 133.78512674 9.28509047 136.22865908 7.3125 138.6875 C6.59707031 139.56792969 5.88164062 140.44835937 5.14453125 141.35546875 C4.43683594 142.22816406 3.72914063 143.10085938 3 144 C0.76130778 146.73878402 -1.47989818 149.47548214 -3.72265625 152.2109375 C-5.32109584 154.1685462 -6.91156353 156.13267832 -8.49609375 158.1015625 C-9.70458984 159.59816406 -9.70458984 159.59816406 -10.9375 161.125 C-11.66839844 162.03507813 -12.39929688 162.94515625 -13.15234375 163.8828125 C-15 166 -15 166 -17 167 C-17.89895966 152.35902563 -18.73845385 137.71629423 -19.4758606 123.06622314 C-19.84738475 115.68271692 -19.84738475 115.68271692 -20.31933594 108.30517578 C-21.79162575 87.31291176 -16.7350553 68.6733109 -11.2752533 48.59613037 C-8.47385495 38.21723925 -6.1287241 27.74599135 -3.8125 17.25 C-2.554375 11.5575 -1.29625 5.865 0 0 Z " fill="#010101" transform="translate(249,197)"/>
<path d="M0 0 C2.57575178 1.55755239 4.49483088 3.52906258 6.5390625 5.72265625 C7.39399796 6.59101357 7.39399796 6.59101357 8.26620483 7.47691345 C10.07216728 9.3207445 11.84813807 11.19065619 13.625 13.0625 C14.82369394 14.29279823 16.02420191 15.52133178 17.2265625 16.74804688 C21.73616799 21.37159747 26.21754502 26.00792151 30.3984375 30.93359375 C36.17420876 37.66960712 42.69884414 43.76221784 49 50 C51.66967432 52.64282415 54.33584008 55.28911824 57 57.9375 C57.598125 58.52732666 58.19625 59.11715332 58.8125 59.72485352 C61.82449849 62.71962378 64.70898465 65.77179405 67.48632812 68.98632812 C70.89674798 72.93168788 74.50772782 76.6198978 78.21875 80.28125 C78.88032104 80.93903442 79.54189209 81.59681885 80.22351074 82.27453613 C82.31322735 84.35217274 84.40617315 86.42650627 86.5 88.5 C89.263417 91.2365815 92.02333722 93.97662263 94.78125 96.71875 C95.40124878 97.33045044 96.02124756 97.94215088 96.66003418 98.5723877 C100.44871191 102.34012081 104.02597564 106.23494475 107.50624084 110.28968811 C108.69031968 111.64542481 109.94203884 112.94203884 111.21484375 114.21484375 C114.5046238 117.5046238 116.47468485 119.93634716 116.75 124.6875 C116.46728467 128.24602554 115.96565683 129.04338085 113.625 132 C109.52120782 135.12669881 107.20839065 135.67205041 102 135 C94.99796282 130.25596525 89.0614387 123.21471525 83.09985352 117.23022461 C81.4407268 115.56573723 79.77631949 113.90666553 78.11132812 112.24804688 C77.03092928 111.1669871 75.95084075 110.08561708 74.87109375 109.00390625 C74.3854747 108.52031143 73.89985565 108.03671661 73.39952087 107.53846741 C70.68416592 104.80506141 68.10336329 101.99569606 65.58422852 99.07983398 C62.14673439 95.1161799 58.5147472 91.40227641 54.78125 87.71875 C54.11967896 87.06096558 53.45810791 86.40318115 52.77648926 85.72546387 C50.68677265 83.64782726 48.59382685 81.57349373 46.5 79.5 C43.736583 76.7634185 40.97666278 74.02337737 38.21875 71.28125 C37.59875122 70.66954956 36.97875244 70.05784912 36.33996582 69.4276123 C32.63206145 65.74020602 29.15657097 61.91948929 25.73840332 57.96325684 C22.95665871 54.82170789 19.98669448 51.88275731 17 48.9375 C16.360625 48.30191162 15.72125 47.66632324 15.0625 47.01147461 C13.04411603 45.0051635 11.02250124 43.00215999 9 41 C-16.41292668 15.8426631 -16.41292668 15.8426631 -16.5 9.5625 C-16.38889482 5.81578653 -16.08443315 5.1066524 -13.625 2 C-8.95730374 -1.55634001 -5.61285686 -1.46107608 0 0 Z " fill="#020202" transform="translate(117,63)"/>
<path d="M0 0 C1.75854492 1.19018555 1.75854492 1.19018555 3.54296875 2.82421875 C4.23664551 3.4594043 4.93032227 4.09458984 5.64501953 4.74902344 C9.832551 8.75161935 13.95836762 12.81079804 18.0456543 16.9152832 C19.5599258 18.43491668 21.0794743 19.94912517 22.59960938 21.46289062 C23.58886239 22.45280459 24.57780508 23.4430288 25.56640625 24.43359375 C26.44240479 25.31072021 27.31840332 26.18784668 28.22094727 27.09155273 C30.36413885 29.28799676 32.38234425 31.5707213 34.38842773 33.89282227 C37.8360405 37.86463072 41.4761476 41.58874026 45.21875 45.28125 C45.88032104 45.93903442 46.54189209 46.59681885 47.22351074 47.27453613 C49.31322735 49.35217274 51.40617315 51.42650627 53.5 53.5 C56.263417 56.2365815 59.02333722 58.97662263 61.78125 61.71875 C62.40124878 62.33045044 63.02124756 62.94215088 63.66003418 63.5723877 C67.36917732 67.2610259 70.84455577 71.08364162 74.26382446 75.04119873 C77.02994108 78.16200802 79.98871962 81.0732631 82.96484375 83.9921875 C84.2729239 85.28762165 85.58086224 86.58319901 86.88867188 87.87890625 C88.91167908 89.87718591 90.93627735 91.87379753 92.96362305 93.86767578 C113.73814523 114.3218915 113.73814523 114.3218915 114.30053711 120.07373047 C113.8994203 123.97932432 112.46533058 125.98681817 110 129 C107.57372613 130.84062155 105.78202968 131.03772563 102.75 131.5625 C98.80130186 130.97019528 98.10472322 130.54941745 95.30078125 127.9921875 C94.60259277 127.35643799 93.9044043 126.72068848 93.18505859 126.06567383 C89.54282669 122.62244208 85.97193681 119.11612833 82.4375 115.5625 C81.72142578 114.85029297 81.00535156 114.13808594 80.26757812 113.40429688 C79.20506836 112.33985352 79.20506836 112.33985352 78.12109375 111.25390625 C77.4964624 110.62814697 76.87183105 110.0023877 76.22827148 109.35766602 C74.32316786 107.34193405 72.50601062 105.28736352 70.69360352 103.18920898 C67.21571686 99.1928778 63.55116519 95.43820697 59.78125 91.71875 C59.11967896 91.06096558 58.45810791 90.40318115 57.77648926 89.72546387 C55.68677265 87.64782726 53.59382685 85.57349373 51.5 83.5 C48.736583 80.7634185 45.97666278 78.02337737 43.21875 75.28125 C42.59875122 74.66954956 41.97875244 74.05784912 41.33996582 73.4276123 C37.63206145 69.74020602 34.15657097 65.91948929 30.73840332 61.96325684 C27.95665871 58.82170789 24.98669448 55.88275731 22 52.9375 C21.360625 52.30191162 20.72125 51.66632324 20.0625 51.01147461 C18.04411603 49.0051635 16.02250124 47.00215999 14 45 C-1.83188359 29.32734512 -1.83188359 29.32734512 -6.66650391 23.57055664 C-8.1733536 21.79582868 -9.76844689 20.12199842 -11.375 18.4375 C-14.20884717 15.10222142 -15.08264374 12.46276206 -15 8 C-12.14009902 1.37707141 -7.27300193 -1.81846066 0 0 Z " fill="#030303" transform="translate(169,55)"/>
<path d="M0 0 C3.69285328 1.84642664 6.15501343 4.090117 8.75 7.21875 C14.77035673 14.18136845 21.46294833 20.52869454 28 27 C30.66967432 29.64282415 33.33584008 32.28911824 36 34.9375 C36.598125 35.52732666 37.19625 36.11715332 37.8125 36.72485352 C40.82449849 39.71962378 43.70898465 42.77179405 46.48632812 45.98632812 C49.89674798 49.93168788 53.50772782 53.6198978 57.21875 57.28125 C57.88032104 57.93903442 58.54189209 58.59681885 59.22351074 59.27453613 C61.31322735 61.35217274 63.40617315 63.42650627 65.5 65.5 C68.263417 68.2365815 71.02333722 70.97662263 73.78125 73.71875 C74.40124878 74.33045044 75.02124756 74.94215088 75.66003418 75.5723877 C79.43447926 79.32596684 82.99990047 83.20466355 86.46694946 87.24429321 C88.49593744 89.5679661 90.66399853 91.72520272 92.875 93.875 C97.87918015 98.74347357 97.87918015 98.74347357 98.3125 103.25 C97.94713599 107.63436813 96.73973233 109.61562477 94 113 C90.18856915 114.90571542 86.13159761 114.73509536 82 114 C78.76091197 112.09540323 76.38308751 109.5793426 73.83203125 106.84375 C73.10811691 106.10805786 72.38420258 105.37236572 71.63835144 104.61437988 C69.33851479 102.26542829 67.07604012 99.88389244 64.8125 97.5 C63.28158585 95.92745587 61.74840146 94.35711851 60.21289062 92.7890625 C54.8385735 87.27345645 49.48990569 81.75463455 44.4519043 75.92773438 C41.12600791 72.09404318 37.61253595 68.49991591 34 64.9375 C33.360625 64.30191162 32.72125 63.66632324 32.0625 63.01147461 C30.04411603 61.0051635 28.02250124 59.00215999 26 57 C10.70150272 41.85536692 10.70150272 41.85536692 5.55322266 35.77148438 C1.80142499 31.49247716 -2.3965598 27.60892845 -6.47851562 23.6484375 C-7.16236328 22.97554687 -7.84621094 22.30265625 -8.55078125 21.609375 C-9.16606689 21.01092773 -9.78135254 20.41248047 -10.4152832 19.79589844 C-13.03853415 16.8230693 -13.9272173 14.56146657 -14.4375 10.625 C-13.85694294 5.8146701 -12.38607407 4.38607407 -9 1 C-5.89046621 -0.5547669 -3.43733239 -0.28644437 0 0 Z " fill="#020202" transform="translate(119,129)"/>
<path d="M0 0 C3.02442751 1.96606433 5.38175807 4.42114064 7.8515625 7.03515625 C8.55469574 7.7472374 9.25782898 8.45931854 9.98226929 9.19297791 C12.21600247 11.46466641 14.42012928 13.76282467 16.625 16.0625 C18.11276835 17.5818575 19.60233662 19.0994547 21.09375 20.61523438 C27.0306749 26.67764189 32.85237518 32.78485635 38.41107178 39.19734192 C40.44281388 41.50237764 42.58023466 43.67675416 44.76953125 45.83203125 C46.00799805 47.05889648 46.00799805 47.05889648 47.27148438 48.31054688 C48.11001953 49.13619141 48.94855469 49.96183594 49.8125 50.8125 C51.50882246 52.48333301 53.20293873 54.1564097 54.89453125 55.83203125 C55.63550049 56.56139893 56.37646973 57.2907666 57.13989258 58.04223633 C59.81626385 60.85911797 60.9492696 62.45211167 61.3125 66.375 C60.97673312 70.26989583 60.4315959 71.98146716 58 75 C55.28575479 77.12738138 53.4760723 77.92909561 50.0625 78.4375 C43.66790179 77.52398597 39.6094451 72.79838253 35.51953125 68.14453125 C31.11896541 63.26043931 26.61346461 58.51986911 21.94921875 53.88671875 C21.35424591 53.29504913 20.75927307 52.70337952 20.14627075 52.09378052 C18.32867929 50.2896561 16.50855162 48.48813134 14.6875 46.6875 C0.64447815 32.79967007 0.64447815 32.79967007 -4.61499023 26.60766602 C-6.582945 24.32333988 -8.71432643 22.22586254 -10.875 20.125 C-15.87382651 15.26173489 -15.87382651 15.26173489 -16.375 10.25 C-16.35058775 6.89941932 -15.75601354 5.15105468 -13.625 2.5625 C-9.2314681 -1.726424 -5.78226309 -1.64752437 0 0 Z " fill="#030303" transform="translate(110,181)"/>
<path d="M0 0 C3 2.4375 3 2.4375 5 5 C5.33 5.33 5.66 5.66 6 6 C6.69087003 12.79355532 6.69087003 12.79355532 4.953125 15.828125 C2.03319639 19.36639143 0.30771309 20.87425836 -4.25 21.3125 C-8.63436813 20.94713599 -10.61562477 19.73973233 -14 17 C-15.72869779 13.54260443 -15.48966895 9.78024432 -15 6 C-11.16984281 -0.12825151 -6.93056085 -1.11319889 0 0 Z " fill="#050505" transform="translate(94,40)"/>
<path d="M0 0 C2.87029869 1.79393668 4.49131638 2.98263276 6 6 C6.42071592 9.05920574 6.48514117 11.9467746 6 15 C3.81840855 17.75569447 2.12822506 19.43588747 -1 21 C-6.86390959 21.67660495 -6.86390959 21.67660495 -9.7578125 19.953125 C-11.93626824 18.16405507 -13.72957812 16.54084375 -15 14 C-15.37712577 9.00308353 -15.09290612 6.00932275 -12 2 C-7.98141405 -0.6790573 -4.72358279 -0.69610694 0 0 Z " fill="#040404" transform="translate(98,107)"/>
</svg>
