<?xml version="1.0" standalone="no"?>
<!DOCTYPE svg PUBLIC "-//W3C//DTD SVG 20010904//EN"
 "http://www.w3.org/TR/2001/REC-SVG-20010904/DTD/svg10.dtd">
<svg version="1.0" xmlns="http://www.w3.org/2000/svg"
 width="48.000000pt" height="48.000000pt" viewBox="0 0 48.000000 48.000000"
 preserveAspectRatio="xMidYMid meet">

<g transform="translate(0.000000,48.000000) scale(0.100000,-0.100000)"
fill="#000000" stroke="none">
<path d="M98 403 c51 -64 109 -116 116 -104 8 13 -91 121 -110 121 -8 0 -14 5
-14 10 0 6 -5 10 -11 10 -6 0 3 -17 19 -37z"/>
<path d="M150 420 c0 -20 97 -116 107 -107 4 4 -19 33 -50 65 -33 33 -57 50
-57 42z"/>
<path d="M264 341 c21 -22 36 -45 33 -53 -4 -9 -6 -10 -6 0 -1 6 -14 12 -30
12 -25 0 -29 -5 -37 -42 -8 -38 -12 -43 -35 -40 -35 4 -75 -47 -49 -63 5 -3 3
-22 -4 -43 -11 -32 -11 -39 4 -54 26 -28 34 -22 55 37 10 30 20 53 23 50 6 -5
42 40 42 52 0 6 6 10 14 10 28 0 84 59 109 116 l26 57 -92 0 -91 0 38 -39z"/>
<path d="M100 353 c0 -12 80 -103 91 -103 20 0 7 26 -33 67 -40 41 -58 52 -58
36z"/>
<path d="M90 302 c0 -14 59 -66 67 -59 3 4 -6 21 -22 37 -28 30 -45 38 -45 22z"/>
</g>
</svg>
