<?xml version="1.0" standalone="no"?>
<!DOCTYPE svg PUBLIC "-//W3C//DTD SVG 20010904//EN"
 "http://www.w3.org/TR/2001/REC-SVG-20010904/DTD/svg10.dtd">
<svg version="1.0" xmlns="http://www.w3.org/2000/svg"
 width="995.000000pt" height="582.000000pt" viewBox="0 0 995.000000 582.000000"
 preserveAspectRatio="xMidYMid meet">

<g transform="translate(0.000000,582.000000) scale(0.100000,-0.100000)"
fill="#000000" stroke="none">
<path d="M1592 5788 c-5 -7 -330 -646 -720 -1419 l-711 -1406 -73 -319 -74
-319 611 -5 611 -5 -73 -315 c-39 -173 -72 -321 -72 -327 -1 -17 824 -19 835
-2 3 6 39 153 78 327 l72 317 112 3 c62 1 112 5 112 8 0 3 34 152 75 331 41
178 75 331 75 339 0 11 -21 14 -106 14 l-106 0 6 33 c4 17 148 642 320 1387
172 745 311 1358 309 1363 -2 4 -289 7 -637 7 -495 0 -636 -3 -644 -12z m41
-1756 l-237 -1022 -244 0 c-134 0 -242 4 -240 9 12 32 953 2039 955 2037 1 -1
-104 -462 -234 -1024z"/>
<path d="M3356 5792 c-5 -9 -506 -2166 -506 -2182 0 -7 124 -10 374 -10 l375
0 16 57 c55 188 168 290 311 281 108 -7 141 -62 131 -216 l-6 -83 62 54 c197
171 426 268 687 289 74 6 136 12 138 13 1 1 -4 51 -12 111 -36 274 -133 404
-356 480 -85 28 -269 49 -358 39 -118 -13 -238 -62 -330 -134 -29 -23 -52 -38
-52 -34 0 5 28 133 62 286 l61 277 591 0 591 0 88 378 c48 207 88 383 87 390
0 9 -202 12 -974 12 -536 0 -977 -4 -980 -8z"/>
<path d="M6425 4195 c-196 -31 -359 -90 -492 -178 -90 -60 -149 -112 -229
-204 l-66 -76 67 -60 c267 -241 414 -604 390 -967 -26 -402 -266 -779 -616
-968 -38 -20 -69 -40 -69 -43 0 -11 110 -48 188 -64 97 -20 318 -20 397 0 95
24 199 82 276 153 38 35 67 58 64 51 -2 -8 -47 -199 -99 -425 -52 -226 -104
-436 -116 -466 -36 -97 -74 -144 -145 -179 -58 -28 -71 -31 -139 -27 -88 4
-119 25 -137 92 -15 55 -5 185 25 316 13 58 22 108 19 113 -2 4 -179 7 -393 7
l-389 0 -10 -37 c-36 -135 -103 -457 -109 -521 -4 -43 -4 -108 -1 -147 34
-362 393 -577 919 -551 533 26 871 239 1098 692 91 182 194 485 286 845 66
253 321 1383 352 1551 35 195 44 466 20 588 -56 281 -250 447 -581 500 -116
18 -408 21 -510 5z m181 -775 c67 -63 63 -130 -27 -517 -39 -169 -82 -334 -95
-367 -50 -123 -131 -186 -242 -186 -110 0 -149 58 -139 209 5 84 100 493 149
641 63 193 126 253 260 247 55 -2 72 -7 94 -27z"/>
<path d="M8838 4195 c-300 -43 -530 -154 -724 -349 -197 -199 -326 -446 -414
-796 -49 -194 -458 -1990 -471 -2065 -20 -121 -15 -327 10 -429 69 -283 275
-464 596 -523 109 -20 373 -22 490 -4 213 33 434 122 590 238 212 158 382 407
479 703 31 95 452 1903 497 2131 42 218 44 439 4 594 -67 263 -279 444 -578
495 -104 18 -371 21 -479 5z m138 -764 c45 -28 58 -74 51 -185 -8 -123 -493
-2220 -530 -2292 -56 -108 -153 -184 -238 -184 -44 0 -98 35 -119 75 -8 17
-16 64 -18 105 -3 69 16 158 228 1075 264 1144 262 1135 301 1235 52 135 119
189 234 190 42 0 70 -6 91 -19z"/>
<path d="M4665 3866 c-314 -84 -506 -205 -666 -420 -133 -178 -197 -365 -206
-602 -9 -224 33 -409 133 -589 58 -103 173 -247 246 -305 124 -99 303 -191
454 -231 99 -27 318 -37 437 -19 361 52 702 297 841 603 81 178 101 276 101
492 0 153 -4 193 -22 267 -56 221 -128 344 -302 519 -122 122 -195 173 -334
230 -134 56 -215 71 -412 75 -166 4 -187 2 -270 -20z m454 -27 c78 -12 131
-38 164 -81 30 -37 28 -43 -11 -51 -16 -3 -55 -18 -87 -32 l-57 -27 -92 16
c-50 8 -145 20 -210 26 -114 11 -121 13 -159 45 -22 19 -56 40 -75 46 l-35 12
24 12 c24 13 145 41 209 49 52 6 255 -3 329 -15z m-532 -98 c23 -11 51 -29 63
-41 21 -21 21 -22 4 -48 -10 -15 -48 -79 -84 -142 l-66 -115 -119 -63 c-66
-35 -148 -81 -183 -103 l-63 -39 -55 47 c-30 26 -54 52 -54 57 0 30 75 197
108 241 52 69 143 140 236 186 92 45 146 50 213 20z m809 -77 c66 -27 205
-117 261 -167 46 -42 56 -59 77 -125 26 -84 52 -245 41 -261 -6 -11 -160 -61
-186 -61 -8 0 -40 21 -70 48 -98 86 -153 129 -226 176 -78 50 -74 43 -103 176
-7 30 -21 76 -31 101 -9 25 -14 51 -10 57 11 18 143 71 177 72 17 0 49 -7 70
-16z m430 -319 c60 -97 98 -196 123 -320 26 -131 32 -270 12 -270 -11 0 -20
27 -32 95 -18 104 -35 151 -79 220 -20 32 -32 68 -40 125 -12 85 -34 187 -46
219 -15 39 15 5 62 -69z m-1807 38 c-5 -15 -41 -90 -80 -168 -38 -77 -69 -147
-69 -154 0 -8 -3 -12 -6 -8 -18 18 77 251 133 325 29 39 36 41 22 5z m582 -82
c42 -27 107 -77 144 -113 l67 -64 -16 -159 c-9 -88 -16 -184 -16 -212 l0 -53
-52 -26 c-29 -15 -103 -55 -164 -90 -61 -35 -122 -64 -135 -64 -25 0 -159 92
-253 173 l-56 48 0 87 c0 82 13 235 26 294 4 20 28 41 101 89 75 49 246 135
273 138 3 1 39 -21 81 -48z m639 -39 c47 -23 181 -127 254 -195 l59 -56 -6
-128 c-3 -70 -11 -163 -18 -206 l-12 -78 -76 -38 c-98 -50 -248 -101 -294
-101 -37 0 -101 43 -259 174 l-68 56 0 68 c0 73 17 264 29 322 6 30 17 41 77
78 74 45 238 121 264 121 9 1 31 -7 50 -17z m-1346 -660 c7 -15 16 -61 19
-102 4 -41 15 -106 26 -145 11 -38 18 -71 17 -73 -5 -4 -54 109 -77 175 -26
75 -49 211 -48 282 l0 56 25 -83 c13 -46 30 -96 38 -110z m2081 99 c7 -13 -20
-145 -52 -246 -35 -112 -115 -261 -180 -336 -91 -104 -112 -92 -53 33 21 46
48 119 60 163 14 54 36 102 65 145 39 57 73 125 113 223 11 27 35 36 47 18z
m-1770 -82 c44 -35 110 -84 148 -108 47 -30 69 -51 73 -70 25 -109 49 -193 71
-247 14 -35 23 -70 20 -78 -7 -19 -137 -115 -166 -123 -44 -11 -228 109 -297
193 -63 77 -116 280 -97 374 8 41 15 49 77 92 43 30 73 44 80 39 6 -4 47 -37
91 -72z m1419 -130 c108 -87 108 -85 84 -176 -30 -117 -80 -214 -137 -265 -85
-77 -242 -148 -326 -148 -35 0 -53 8 -106 49 -35 27 -84 67 -107 88 l-44 38
42 77 c23 43 56 114 75 159 18 44 37 85 42 90 6 6 75 34 154 63 79 30 160 61
179 69 19 9 43 16 52 17 9 0 51 -27 92 -61z m-969 -415 c33 -8 112 -17 175
-20 72 -4 123 -12 137 -20 12 -8 67 -50 122 -95 l101 -80 -52 -46 c-80 -71
-114 -83 -246 -83 -76 0 -147 7 -215 21 -86 17 -110 27 -162 64 -62 44 -135
117 -135 135 0 5 20 23 45 40 24 17 65 49 91 71 30 26 52 38 63 34 9 -4 43
-13 76 -21z"/>
<path d="M2577 2843 c-93 -409 -101 -459 -94 -593 15 -330 221 -540 606 -617
120 -25 457 -24 590 1 170 31 319 88 443 169 l47 31 -79 74 c-142 131 -265
318 -323 489 l-24 72 -28 -29 c-35 -36 -102 -60 -172 -60 -172 0 -189 118 -83
576 28 117 50 215 50 218 0 3 -193 6 -428 6 l-428 0 -77 -337z"/>
</g>
</svg>
