<?xml version="1.0" standalone="no"?>
<!DOCTYPE svg PUBLIC "-//W3C//DTD SVG 20010904//EN"
 "http://www.w3.org/TR/2001/REC-SVG-20010904/DTD/svg10.dtd">
<svg version="1.0" xmlns="http://www.w3.org/2000/svg"
 width="275.000000pt" height="200.000000pt" viewBox="0 0 275.000000 200.000000"
 preserveAspectRatio="xMidYMid meet">

<g transform="translate(0.000000,200.000000) scale(0.100000,-0.100000)"
fill="#000000" stroke="none">
<path d="M1342 1937 c-6 -7 -20 -33 -30 -58 -18 -41 -25 -47 -85 -71 -51 -20
-67 -23 -71 -13 -6 16 -111 95 -125 95 -6 0 -25 -13 -44 -29 -29 -26 -58 -76
-95 -161 l-11 -25 0 28 c-1 47 -27 82 -81 110 -65 34 -80 34 -112 0 -77 -81
-115 -295 -69 -397 19 -44 25 -48 86 -59 16 -2 11 -7 -21 -23 -26 -12 -69 -51
-115 -104 -41 -47 -82 -94 -92 -105 -75 -81 -289 -341 -360 -437 -83 -111 -87
-118 -75 -145 22 -50 68 -103 91 -103 12 0 72 15 132 34 61 19 112 32 114 30
2 -2 -9 -34 -24 -71 -29 -71 -95 -263 -95 -272 1 -4 10 10 21 29 11 19 17 26
14 15 -17 -55 -27 -115 -22 -130 6 -14 11 -12 33 12 15 15 33 38 41 50 8 13
19 21 23 18 5 -3 21 14 35 37 25 40 27 39 10 -4 -4 -10 -3 -18 3 -18 17 0 60
86 118 235 30 77 58 147 63 155 4 8 43 29 86 46 44 18 91 42 105 55 l25 22
-35 10 -35 10 33 10 c53 16 36 27 -44 27 -68 0 -75 2 -69 18 4 9 26 69 50 132
24 63 61 157 84 209 23 52 41 97 41 99 0 3 -10 -3 -21 -14 -18 -16 -17 -12 6
26 15 25 36 56 46 69 23 28 23 49 4 75 -12 16 -26 19 -77 17 l-62 -2 25 20
c13 10 42 49 64 87 l40 68 7 -45 c10 -60 54 -101 96 -90 50 15 67 28 109 83
52 68 71 105 86 174 12 53 16 57 52 70 22 8 41 14 41 14 1 0 -7 -28 -18 -62
-24 -75 -35 -240 -19 -281 17 -43 45 -32 48 18 7 97 69 334 96 362 7 6 50 26
97 42 l85 31 -33 -26 c-24 -19 -31 -31 -26 -48 3 -12 -4 -44 -17 -71 -54 -126
-94 -271 -82 -302 8 -20 48 -15 131 17 122 47 242 126 263 174 17 36 -2 54
-71 69 l-52 12 73 50 c42 28 80 63 88 79 13 28 12 31 -10 49 -21 17 -35 19
-116 15 -74 -4 -93 -2 -93 8 0 8 -9 14 -20 14 -11 0 -20 -5 -20 -12 0 -6 -8
-4 -20 7 -18 16 -22 16 -66 1 -63 -21 -63 -21 -80 19 -15 36 -34 44 -52 22z
m411 -126 c-35 -29 -214 -134 -219 -128 -3 2 7 34 21 70 30 74 29 74 145 75
74 1 75 1 53 -17z m-664 -67 c-10 -13 -10 -19 0 -36 11 -17 8 -29 -18 -83 -29
-58 -98 -135 -121 -135 -17 0 -11 110 10 189 l21 76 61 3 c55 2 59 1 47 -14z
m-275 -72 c-2 -62 -38 -144 -88 -197 -30 -32 -39 -36 -46 -25 -13 20 -11 144
3 204 12 49 13 50 62 62 28 6 55 10 60 9 6 -1 9 -25 9 -53z m896 -73 c-40 -34
-246 -128 -255 -117 -2 2 7 27 18 56 12 33 25 51 33 48 7 -3 34 4 61 14 28 11
73 19 108 19 l60 0 -25 -20z m-1109 -591 c-21 -54 -133 -294 -141 -302 -7 -7
-152 -46 -173 -46 -5 0 3 15 18 33 36 42 299 337 302 337 1 0 -1 -10 -6 -22z"/>
<path d="M1945 1799 c-25 -23 -77 -92 -117 -154 -52 -81 -82 -117 -107 -131
-38 -20 -54 -54 -26 -54 12 0 15 -5 9 -22 -12 -40 -10 -53 10 -53 13 0 29 16
46 45 22 37 33 46 64 51 30 5 36 3 31 -8 -17 -46 -17 -63 1 -70 11 -4 26 -16
35 -26 16 -21 26 -20 222 9 37 6 37 5 26 -19 -13 -30 2 -67 29 -68 41 -2 155
2 245 7 93 6 98 8 95 28 -4 28 -59 46 -161 53 -43 3 -80 10 -83 14 -3 5 40 76
96 159 55 83 100 155 100 159 0 5 -6 13 -13 20 -18 15 -66 -36 -157 -169 -40
-58 -73 -106 -74 -106 -1 -1 -51 1 -112 5 l-111 6 83 150 c87 156 101 197 72
203 -20 4 -49 -34 -123 -163 -31 -55 -61 -104 -66 -110 -5 -5 11 40 36 100 46
114 54 152 33 173 -20 20 -36 14 -83 -29z m8 -101 c-19 -46 -42 -98 -49 -115
-12 -27 -20 -33 -45 -33 l-30 0 32 58 c71 125 104 172 120 172 5 0 -8 -37 -28
-82z"/>
<path d="M511 1745 c-25 -15 -52 -23 -62 -20 -14 5 -22 0 -28 -17 -5 -13 -30
-43 -55 -68 -25 -24 -46 -50 -46 -57 0 -18 45 -16 60 2 22 27 31 16 30 -37 -2
-57 13 -182 25 -210 4 -10 14 -18 22 -18 12 0 14 17 12 96 l-3 96 48 36 c51
37 48 52 -6 33 -46 -16 -49 -14 -46 26 3 33 9 42 53 69 64 40 98 72 90 84 -11
17 -48 11 -94 -15z"/>
<path d="M1470 1324 c-36 -8 -76 -16 -90 -19 -20 -4 -22 -3 -10 5 12 9 11 10
-5 6 -11 -3 -91 -24 -178 -46 -174 -43 -177 -45 -177 -66 0 -8 -36 -94 -80
-190 -95 -208 -103 -243 -68 -282 14 -15 28 -35 31 -44 9 -26 30 -22 87 13 64
39 141 69 180 69 89 0 -20 -139 -250 -323 -90 -72 -92 -73 -60 -58 22 10 21 9
-5 -11 -42 -33 -123 -112 -105 -103 8 4 4 -3 -10 -14 -14 -11 -29 -21 -33 -21
-5 0 -6 -4 -3 -8 3 -5 -11 -16 -31 -26 -19 -9 -33 -19 -31 -21 5 -5 142 40
226 74 66 27 67 19 1 -15 -82 -41 -49 -39 42 4 90 42 113 56 230 145 101 75
147 123 200 204 41 63 44 71 44 138 0 77 -17 110 -78 156 -40 29 -125 37 -185
16 -51 -18 -51 -19 7 91 34 65 49 83 70 88 111 23 281 89 298 117 4 6 1 7 -8
3 -8 -4 -3 2 11 13 14 11 22 21 18 21 -4 0 8 16 28 35 19 19 31 35 27 35 -4 0
1 7 11 15 19 14 18 15 -10 14 -16 -1 -58 -7 -94 -15z"/>
<path d="M1805 1282 c-144 -50 -295 -214 -352 -381 -33 -98 -30 -145 12 -208
39 -57 77 -83 125 -83 31 0 111 35 163 72 15 11 27 17 27 14 0 -26 -154 -232
-299 -400 -52 -60 -87 -106 -78 -103 23 9 31 -10 10 -22 -15 -10 -14 -11 7 -7
49 8 85 19 99 30 12 9 13 8 6 -3 -6 -11 -4 -13 11 -7 10 5 28 11 39 14 11 2
30 14 42 24 12 11 26 17 31 14 15 -9 125 116 203 233 83 123 153 266 203 415
64 189 59 274 -19 353 -24 23 -55 47 -70 53 -39 15 -103 12 -160 -8z m124
-194 c-53 -105 -213 -284 -289 -323 -28 -14 -31 -14 -36 0 -8 20 19 80 70 160
47 74 153 177 221 216 47 27 50 27 53 10 2 -11 -7 -39 -19 -63z m-228 -796
c-5 -9 -19 -26 -32 -37 -17 -15 -15 -10 7 17 32 41 40 48 25 20z"/>
<path d="M2414 1264 c-211 -141 -394 -488 -394 -747 0 -40 5 -89 11 -110 21
-78 137 -167 216 -167 51 0 142 51 200 113 69 72 121 155 172 271 64 145 84
232 85 361 1 96 -2 116 -22 158 -14 26 -44 64 -70 85 -26 20 -53 43 -60 50
-24 22 -95 15 -138 -14z m147 -151 c34 -88 -56 -361 -184 -554 -53 -82 -144
-179 -167 -179 -21 0 -30 50 -20 118 22 150 90 325 183 466 59 89 140 176 165
176 7 0 17 -12 23 -27z"/>
</g>
</svg>
