<?xml version="1.0" encoding="UTF-8"?>
<svg version="1.1" xmlns="http://www.w3.org/2000/svg" width="275" height="200">
<path d="M0 0 C3 1 3 1 4.6875 4.0625 C5.120625 5.031875 5.55375 6.00125 6 7 C7.051875 6.67 8.10375 6.34 9.1875 6 C12.42407381 5.15106261 14.71480602 4.81748922 18 5 C18.99 5 19.98 5 21 5 C21.62503418 5.32291016 22.25006836 5.64582031 22.89404297 5.97851562 C25.31761048 7.15405544 27.0137792 7.28142624 29.6953125 7.34375 C30.57574219 7.37339844 31.45617187 7.40304688 32.36328125 7.43359375 C34.21223508 7.47805233 36.06119347 7.52232158 37.91015625 7.56640625 C38.78800781 7.59605469 39.66585937 7.62570313 40.5703125 7.65625 C41.37227051 7.67494141 42.17422852 7.69363281 43.00048828 7.71289062 C45 8 45 8 47 10 C47.06663929 13.46524307 46.90274303 15.95093324 44.578125 18.65234375 C40.9733018 21.78662587 37.02935314 24.44480045 33 27 C33.62648437 27.17015625 34.25296875 27.3403125 34.8984375 27.515625 C35.71570313 27.75796875 36.53296875 28.0003125 37.375 28.25 C38.18710938 28.48203125 38.99921875 28.7140625 39.8359375 28.953125 C42.45785454 30.2214892 42.99382318 31.32423308 44 34 C44.94359375 32.49759766 44.94359375 32.49759766 45.90625 30.96484375 C55.98314709 15.20151387 55.98314709 15.20151387 62 12 C64.73046875 11.83984375 64.73046875 11.83984375 67 12 C69.4606443 17.46809845 68.71084699 20.48727081 67 26 C67.60328125 25.07316406 68.2065625 24.14632813 68.828125 23.19140625 C69.6348158 21.98137004 70.44214074 20.77175642 71.25 19.5625 C71.64574219 18.95083984 72.04148438 18.33917969 72.44921875 17.70898438 C75.46677258 13.23212173 75.46677258 13.23212173 78.234375 12.02734375 C78.81703125 12.01832031 79.3996875 12.00929688 80 12 C80.33 12.33 80.66 12.66 81 13 C80.91631303 20.84797832 77.37151263 26.55265587 73.5625 33.25 C72.37612572 35.38011012 71.18992074 37.51031454 70.00390625 39.640625 C69.47611572 40.57422852 68.9483252 41.50783203 68.40454102 42.46972656 C67.2131301 44.61604721 66.09782989 46.80434023 65 49 C71.93 49 78.86 49 86 49 C86.66 47.35 87.32 45.7 88 44 C89.1768668 42.214409 90.4108065 40.46563528 91.6875 38.75 C92.39648438 37.79609375 93.10546875 36.8421875 93.8359375 35.859375 C103.39320726 23.23135792 103.39320726 23.23135792 106 21 C108.1875 21.3125 108.1875 21.3125 110 22 C109.62748206 28.25182286 107.55198238 31.77536619 103.875 36.75 C102.87477705 38.14995333 101.87608409 39.55100102 100.87890625 40.953125 C100.38922363 41.63568359 99.89954102 42.31824219 99.39501953 43.02148438 C96.42400913 47.23518201 93.71857556 51.62058817 91 56 C91.97839844 56.03738281 92.95679688 56.07476562 93.96484375 56.11328125 C110.87987053 56.96152743 110.87987053 56.96152743 115 60 C115.29777344 60.94875 115.59554687 61.8975 115.90234375 62.875 C117.27549954 66.78434031 118.7848463 67.63967821 122.25 69.8125 C128.31146549 73.94097846 131.75331512 78.50663024 135 85 C138.31203238 110.5595226 129.39434114 136.51792026 113.80078125 156.8046875 C106.94716611 165.1598539 98.93276122 171.62038935 88.125 173.5 C79.8655734 172.17849174 73.75822868 167.70116476 68.5625 161.30078125 C63.38011338 153.66971695 63.93025519 142.78970449 65.32080078 133.96386719 C70.50727807 107.710083 84.03941473 84.64790326 105 68 C104.22285645 67.98541748 103.44571289 67.97083496 102.64501953 67.95581055 C99.13783312 67.88153022 95.6316199 67.78480411 92.125 67.6875 C90.90167969 67.66494141 89.67835938 67.64238281 88.41796875 67.61914062 C87.25136719 67.58369141 86.08476562 67.54824219 84.8828125 67.51171875 C83.80402832 67.48553467 82.72524414 67.45935059 81.61376953 67.43237305 C80.75122559 67.28968994 79.88868164 67.14700684 79 67 C76.8480563 63.77208445 76.79913557 62.71599191 77 59 C76.26136719 59.144375 75.52273437 59.28875 74.76171875 59.4375 C57.52929769 62.59057323 57.52929769 62.59057323 51.98046875 60.08984375 C50.3125 58.875 50.3125 58.875 48 56 C47.625 52.6875 47.625 52.6875 48 50 C45.63976913 49.62373786 45.63976913 49.62373786 43 50 C41.09557709 51.94955364 41.09557709 51.94955364 39.6875 54.5 C39.17574219 55.3353125 38.66398438 56.170625 38.13671875 57.03125 C37.76160156 57.6809375 37.38648438 58.330625 37 59 C35.68 58.67 34.36 58.34 33 58 C33.33 55.69 33.66 53.38 34 51 C33.34 51 32.68 51 32 51 C31.34 50.34 30.68 49.68 30 49 C28.04131782 49.74908848 26.08307614 50.49932878 24.125 51.25 C22.94164062 51.69988281 21.75828125 52.14976563 20.5390625 52.61328125 C18.37046729 53.46300675 16.21490984 54.34834429 14.0859375 55.29296875 C13.23257813 55.67066406 12.37921875 56.04835937 11.5 56.4375 C10.37078125 56.96150391 10.37078125 56.96150391 9.21875 57.49609375 C6.261375 58.1677511 4.6651801 57.31851339 2 56 C1.65438115 44.35696514 5.75957996 34.7497426 10.16796875 24.17553711 C11.91717875 19.66468947 11.91717875 19.66468947 11 15 C7.03065963 15.04706728 4.28216782 15.72357867 1 18 C-2.2351579 23.42048604 -3.49563818 29.93098932 -5 36 C-5.50853516 37.87945312 -5.50853516 37.87945312 -6.02734375 39.796875 C-7.21909896 44.47602448 -8.15775375 48.84687775 -8.0625 53.6875 C-8.041875 54.780625 -8.02125 55.87375 -8 57 C-8.99 57.99 -8.99 57.99 -10 59 C-12.125 58.625 -12.125 58.625 -14 58 C-17.76128487 46.9512257 -16.19805563 34.7950002 -12 24 C-13.98 24 -15.96 24 -18 24 C-18.12955078 25.01707031 -18.12955078 25.01707031 -18.26171875 26.0546875 C-19.97877115 37.42819054 -24.48750603 46.14752047 -33 54 C-36.73385952 56.25902098 -39.63809436 56.46734703 -44 56 C-47.37152289 53.53969951 -48.69519658 50.91441027 -50 47 C-52.6486859 50.19668988 -54.93992341 53.39486597 -57 57 C-55.741875 57.020625 -54.48375 57.04125 -53.1875 57.0625 C-50.99609375 57.34375 -50.99609375 57.34375 -49 58 C-46.21066918 61.79658917 -46.21066918 61.79658917 -46 65 C-46.6993244 67.18206916 -47.67171912 68.95452833 -48.83203125 70.9296875 C-49.97410316 72.9540959 -50.64967681 74.77933124 -51.3125 77 C-52.67059243 81.31046726 -54.46064868 85.38449887 -56.3125 89.5 C-59.5215649 96.65979933 -62.20430132 103.93318678 -64.73828125 111.35546875 C-65.74999685 114.27785468 -66.81850562 117.14333518 -68 120 C-66.60974609 120.07347656 -66.60974609 120.07347656 -65.19140625 120.1484375 C-63.99386719 120.22320312 -62.79632813 120.29796875 -61.5625 120.375 C-59.77005859 120.47941406 -59.77005859 120.47941406 -57.94140625 120.5859375 C-56.97074219 120.72257812 -56.00007813 120.85921875 -55 121 C-54.67 121.66 -54.34 122.32 -54 123 C-54.66 123.99 -55.32 124.98 -56 126 C-55.34 126.66 -54.68 127.32 -54 128 C-54 128.66 -54 129.32 -54 130 C-56.1862225 131.10675619 -58.37390948 132.21044378 -60.5625 133.3125 C-61.17158203 133.62123047 -61.78066406 133.92996094 -62.40820312 134.24804688 C-63.01728516 134.55419922 -63.62636719 134.86035156 -64.25390625 135.17578125 C-64.87354248 135.49691895 -65.49317871 135.81805664 -66.1315918 136.14892578 C-68 137 -68 137 -71.6171875 137.88671875 C-77.25172506 141.40667813 -78.45996718 147.43889472 -80.5625 153.5 C-89.46894065 178.23579149 -89.46894065 178.23579149 -96.0625 181.375 C-96.73667969 181.63925781 -97.41085938 181.90351563 -98.10546875 182.17578125 C-102.17506665 183.94626611 -104.60593333 187.4089 -107 191 C-107.99 191 -108.98 191 -110 191 C-109.67 188.03 -109.34 185.06 -109 182 C-109.66 182 -110.32 182 -111 182 C-108.39322042 170.61918184 -105.24534711 159.46019802 -100 149 C-100 148.34 -100 147.68 -100 147 C-101.14597656 147.34933594 -102.29195312 147.69867188 -103.47265625 148.05859375 C-105.0025249 148.51849292 -106.53247731 148.97811354 -108.0625 149.4375 C-109.19075195 149.78264648 -109.19075195 149.78264648 -110.34179688 150.13476562 C-114.87030833 151.48743788 -119.26538586 152.62527551 -124 153 C-128.68138775 150.38713242 -130.7650956 146.7181315 -133 142 C-133.50339743 138.59927068 -133.16669666 137.27152245 -131.34765625 134.30859375 C-130.59355469 133.36113281 -129.83945313 132.41367188 -129.0625 131.4375 C-128.23130069 130.37797283 -127.40058513 129.318066 -126.5703125 128.2578125 C-126.14266602 127.71930664 -125.71501953 127.18080078 -125.27441406 126.62597656 C-123.26823081 124.06636345 -121.36172017 121.43399856 -119.4375 118.8125 C-116.16159215 114.44083788 -112.72342644 110.32982223 -109.046875 106.29296875 C-104.42775697 101.11849874 -100.04520477 95.70205886 -95.859375 90.171875 C-94.93898438 89.09679687 -94.93898438 89.09679687 -94 88 C-93.34 88 -92.68 88 -92 88 C-91.75507812 87.43539062 -91.51015625 86.87078125 -91.2578125 86.2890625 C-89.773105 83.58707928 -87.98033665 81.62705 -85.875 79.375 C-81.92214458 75.07092157 -78.23145849 70.63087225 -74.62890625 66.03125 C-73 64 -73 64 -71 62 C-71.34933594 61.48050781 -71.69867188 60.96101563 -72.05859375 60.42578125 C-72.51363281 59.72839844 -72.96867187 59.03101563 -73.4375 58.3125 C-73.88996094 57.62800781 -74.34242187 56.94351563 -74.80859375 56.23828125 C-79.76908625 46.91906091 -76.98297506 35.01107299 -74.20703125 25.4375 C-72.32097494 20.06620694 -69.94591346 16.00672325 -66 11.9375 C-63.26999459 10.65780996 -61.88769476 11.23473975 -59 12 C-56.61328125 13.0859375 -56.61328125 13.0859375 -54.3125 14.375 C-53.54550781 14.79523437 -52.77851562 15.21546875 -51.98828125 15.6484375 C-50 17 -50 17 -48 20 C-48 21.32 -48 22.64 -48 24 C-47.34 24 -46.68 24 -46 24 C-45.83951172 22.90558594 -45.83951172 22.90558594 -45.67578125 21.7890625 C-44.94997595 18.79354235 -43.91121451 16.9147515 -42.1875 14.375 C-41.68605469 13.61960937 -41.18460937 12.86421875 -40.66796875 12.0859375 C-38.25529122 9.06867802 -36.43755758 7.23119955 -32.546875 6.60546875 C-29.32803861 7.10409218 -27.7692368 8.27090373 -25.25 10.3125 C-24.08210938 11.23482422 -24.08210938 11.23482422 -22.890625 12.17578125 C-21 14 -21 14 -20 17 C-11.98488669 14.68090703 -11.98488669 14.68090703 -5.9375 9.25390625 C-4.92594651 7.30919467 -3.97074257 5.33368316 -3.0859375 3.328125 C-2 1 -2 1 0 0 Z M22.5 15.4375 C20.35716142 19.09818257 19.1478028 22.93051734 18 27 C24.9064141 23.65038916 31.57269512 20.20246858 38 16 C35.41600594 13.41600594 34.21629635 13.6731407 30.625 13.625 C26.34778452 13.72557651 26.34778452 13.72557651 22.5 15.4375 Z M-37 21 C-40.21053878 28.58583116 -42.06652302 35.7112314 -42 44 C-41.67 44.66 -41.34 45.32 -41 46 C-35.08791502 43.4532557 -31.54019087 38.26215533 -28 33.0625 C-26.57931763 28.71166024 -27.25056807 25.49659158 -28 21 C-30.97 21 -33.94 21 -37 21 Z M59 22 C54.72500877 28.08194628 51.17180135 34.27746528 48 41 C50.38683886 41.07702557 50.38683886 41.07702557 53 40 C54.56908525 37.50020258 55.7290626 35.30549704 56.875 32.625 C57.1946875 31.93921875 57.514375 31.2534375 57.84375 30.546875 C59.79368815 26.39333671 59.79368815 26.39333671 59 22 Z M-66 26 C-68.658155 33.44283401 -70.52160899 43.35933516 -68 51 C-62.02539242 48.45788835 -59.13673974 43.08402286 -56.125 37.5625 C-54.75934887 33.2379381 -54.72510279 29.48998778 -55 25 C-58.83225427 24.91087781 -62.26562152 25.12132271 -66 26 Z M65 28 C66 30 66 30 66 30 Z M64 30 C65 32 65 32 65 32 Z M12 41 C11.26656572 44.06556598 11.26656572 44.06556598 11 47 C19.0781048 44.2996378 26.73134805 41.51887092 34 37 C33.67 36.34 33.34 35.68 33 35 C25.02764074 34.40945487 18.64654782 36.56896812 12 41 Z M112.8125 85.125 C107.57480801 89.97014548 103.83633533 96.04091577 100 102 C99.37867188 102.9384375 98.75734375 103.876875 98.1171875 104.84375 C88.9333809 119.50489418 82.09843214 138.56968805 83 156 C84.84725052 156.69159401 84.84725052 156.69159401 87 157 C88.485 156.01 88.485 156.01 90 155 C90 154.34 90 153.68 90 153 C90.66 153 91.32 153 92 153 C102.71956378 141.03397532 110.30762778 125.89705921 116 111 C116.62068359 109.38158203 116.62068359 109.38158203 117.25390625 107.73046875 C120.03715436 99.71044721 120.45593885 92.44753361 120 84 C116.40611899 82.73707435 116.27104566 82.81930289 112.8125 85.125 Z M-79 98 C-87.97759647 106.56703694 -87.97759647 106.56703694 -96 116 C-96 116.66 -96 117.32 -96 118 C-96.66 118 -97.32 118 -98 118 C-99.43581474 119.61457079 -100.80144783 121.29219075 -102.125 123 C-102.84945312 123.928125 -103.57390625 124.85625 -104.3203125 125.8125 C-104.87460938 126.534375 -105.42890625 127.25625 -106 128 C-103.0002411 129.49987945 -100.86934726 128.60459612 -97.625 127.9375 C-96.48289062 127.71964844 -95.34078125 127.50179687 -94.1640625 127.27734375 C-88.69846633 125.07086233 -87.15672616 120.47269349 -84.859375 115.36328125 C-84.14971258 113.68243267 -83.44669669 111.99876404 -82.75 110.3125 C-82.38648437 109.45849609 -82.02296875 108.60449219 -81.6484375 107.72460938 C-79.60560911 103.02447963 -79.60560911 103.02447963 -79 98 Z " fill="#010101" transform="translate(136,4)"/>
<path d="M0 0 C1.45431554 2.49311235 2.43943501 4.21832844 3 7 C2.33054184 9.20474887 1.3342148 10.94442723 0.16796875 12.9296875 C-0.97410316 14.9540959 -1.64967681 16.77933124 -2.3125 19 C-3.67059243 23.31046726 -5.46064868 27.38449887 -7.3125 31.5 C-10.5215649 38.65979933 -13.20430132 45.93318678 -15.73828125 53.35546875 C-16.74999685 56.27785468 -17.81850562 59.14333518 -19 62 C-18.07316406 62.04898438 -17.14632812 62.09796875 -16.19140625 62.1484375 C-14.99386719 62.22320312 -13.79632813 62.29796875 -12.5625 62.375 C-10.77005859 62.47941406 -10.77005859 62.47941406 -8.94140625 62.5859375 C-7.97074219 62.72257812 -7.00007813 62.85921875 -6 63 C-5.67 63.66 -5.34 64.32 -5 65 C-5.66 65.99 -6.32 66.98 -7 68 C-6.34 68.66 -5.68 69.32 -5 70 C-5 70.66 -5 71.32 -5 72 C-7.1862225 73.10675619 -9.37390948 74.21044378 -11.5625 75.3125 C-12.17158203 75.62123047 -12.78066406 75.92996094 -13.40820312 76.24804688 C-14.01728516 76.55419922 -14.62636719 76.86035156 -15.25390625 77.17578125 C-15.87354248 77.49691895 -16.49317871 77.81805664 -17.1315918 78.14892578 C-19 79 -19 79 -22.6171875 79.88671875 C-28.25172506 83.40667813 -29.45996718 89.43889472 -31.5625 95.5 C-40.46894065 120.23579149 -40.46894065 120.23579149 -47.0625 123.375 C-47.73667969 123.63925781 -48.41085938 123.90351563 -49.10546875 124.17578125 C-53.17506665 125.94626611 -55.60593333 129.4089 -58 133 C-58.99 133 -59.98 133 -61 133 C-60.67 130.03 -60.34 127.06 -60 124 C-60.66 124 -61.32 124 -62 124 C-59.39322042 112.61918184 -56.24534711 101.46019802 -51 91 C-51 90.34 -51 89.68 -51 89 C-52.14597656 89.34933594 -53.29195312 89.69867188 -54.47265625 90.05859375 C-56.0025249 90.51849292 -57.53247731 90.97811354 -59.0625 91.4375 C-59.81466797 91.66759766 -60.56683594 91.89769531 -61.34179688 92.13476562 C-65.87030833 93.48743788 -70.26538586 94.62527551 -75 95 C-79.68138775 92.38713242 -81.7650956 88.7181315 -84 84 C-84.50339743 80.59927068 -84.16669666 79.27152245 -82.34765625 76.30859375 C-81.21650391 74.88740234 -81.21650391 74.88740234 -80.0625 73.4375 C-79.23130069 72.37797283 -78.40058513 71.318066 -77.5703125 70.2578125 C-77.14266602 69.71930664 -76.71501953 69.18080078 -76.27441406 68.62597656 C-74.26823081 66.06636345 -72.36172017 63.43399856 -70.4375 60.8125 C-67.16159215 56.44083788 -63.72342644 52.32982223 -60.046875 48.29296875 C-55.42775697 43.11849874 -51.04520477 37.70205886 -46.859375 32.171875 C-46.24578125 31.45515625 -45.6321875 30.7384375 -45 30 C-44.34 30 -43.68 30 -43 30 C-42.75636719 29.43796875 -42.51273438 28.8759375 -42.26171875 28.296875 C-40.75819064 25.55980215 -38.93300252 23.54204059 -36.8125 21.25 C-33.89185156 18.08128366 -31.06064336 14.88112848 -28.3125 11.5625 C-25.54628935 8.38552953 -23.02627989 6.46410178 -19 5 C-18.01 5 -17.02 5 -16 5 C-16 4.01 -16 3.02 -16 2 C-10.60539047 -0.27141454 -5.73842251 -0.20413361 0 0 Z M-30 40 C-38.97759647 48.56703694 -38.97759647 48.56703694 -47 58 C-47 58.66 -47 59.32 -47 60 C-47.66 60 -48.32 60 -49 60 C-50.43581474 61.61457079 -51.80144783 63.29219075 -53.125 65 C-53.84945312 65.928125 -54.57390625 66.85625 -55.3203125 67.8125 C-55.87460937 68.534375 -56.42890625 69.25625 -57 70 C-54.0002411 71.49987945 -51.86934726 70.60459612 -48.625 69.9375 C-47.48289062 69.71964844 -46.34078125 69.50179687 -45.1640625 69.27734375 C-39.69846633 67.07086233 -38.15672616 62.47269349 -35.859375 57.36328125 C-35.14971258 55.68243267 -34.44669669 53.99876404 -33.75 52.3125 C-33.38648437 51.45849609 -33.02296875 50.60449219 -32.6484375 49.72460938 C-30.60560911 45.02447963 -30.60560911 45.02447963 -30 40 Z " fill="#111111" transform="translate(87,62)"/>
<path d="M0 0 C6.10489186 4.27216035 9.53532635 10.01805179 10.88671875 17.3203125 C11.3275926 23.37298737 10.02275488 28.45477716 8.32421875 34.1953125 C8.05246826 35.12005371 7.78071777 36.04479492 7.50073242 36.99755859 C3.65882816 49.7337944 -1.31978205 61.33012559 -7.92578125 72.8828125 C-8.40619873 73.72344238 -8.88661621 74.56407227 -9.3815918 75.43017578 C-9.83574463 76.19958496 -10.28989746 76.96899414 -10.7578125 77.76171875 C-11.16362549 78.44951416 -11.56943848 79.13730957 -11.98754883 79.84594727 C-12.54478638 80.57575806 -12.54478638 80.57575806 -13.11328125 81.3203125 C-13.77328125 81.3203125 -14.43328125 81.3203125 -15.11328125 81.3203125 C-15.34660156 82.01382813 -15.57992187 82.70734375 -15.8203125 83.421875 C-17.36944231 86.89454667 -19.46620223 89.72675765 -21.80078125 92.6953125 C-22.24558838 93.26531982 -22.69039551 93.83532715 -23.14868164 94.42260742 C-30.43266192 103.6355106 -30.43266192 103.6355106 -34.11328125 106.3203125 C-35.10328125 106.3203125 -36.09328125 106.3203125 -37.11328125 106.3203125 C-38.10328125 107.1246875 -39.09328125 107.9290625 -40.11328125 108.7578125 C-44.06491997 111.7425609 -47.61135189 111.98499155 -52.46484375 112.1796875 C-55.10280656 112.31975632 -57.53888049 112.74409284 -60.11328125 113.3203125 C-60.11328125 112.3303125 -60.11328125 111.3403125 -60.11328125 110.3203125 C-60.77328125 110.3203125 -61.43328125 110.3203125 -62.11328125 110.3203125 C-60.51525926 106.43546593 -57.8537181 103.73813829 -54.98828125 100.7578125 C-50.38212367 95.88043634 -46.44676346 90.86107217 -42.671875 85.3046875 C-41.90037109 84.32242188 -41.90037109 84.32242188 -41.11328125 83.3203125 C-40.45328125 83.3203125 -39.79328125 83.3203125 -39.11328125 83.3203125 C-38.87609375 82.794375 -38.63890625 82.2684375 -38.39453125 81.7265625 C-36.39102031 77.96387122 -33.85371461 74.56801574 -31.390625 71.09765625 C-29.39469195 68.25855676 -27.5423232 65.48905769 -26.11328125 62.3203125 C-26.65855469 62.66964844 -27.20382813 63.01898438 -27.765625 63.37890625 C-33.0896107 66.59149933 -37.79032989 68.74737863 -44.11328125 68.3203125 C-47.61328125 67.0703125 -47.61328125 67.0703125 -50.11328125 65.3203125 C-50.44328125 64.3303125 -50.77328125 63.3403125 -51.11328125 62.3203125 C-51.77328125 62.3203125 -52.43328125 62.3203125 -53.11328125 62.3203125 C-56.53457533 56.93177433 -59.09718144 52.87964712 -58.11328125 46.3203125 C-54.36450415 30.57126012 -45.95648723 15.00456845 -32.32421875 5.62890625 C-22.08543073 -0.4311538 -11.43009268 -6.42240964 0 0 Z M-18.11328125 20.3203125 C-18.7165625 20.77535156 -19.31984375 21.23039062 -19.94140625 21.69921875 C-27.88053136 27.91325359 -35.49834989 37.85609523 -39.11328125 47.3203125 C-39.27557696 49.98998781 -39.27557696 49.98998781 -39.11328125 52.3203125 C-26.17197722 47.89965466 -15.51862543 33.01191838 -8.390625 21.92578125 C-6.97617586 19.04065104 -6.48900086 16.49769435 -6.11328125 13.3203125 C-11.1689665 13.3203125 -14.32842065 17.21494869 -18.11328125 20.3203125 Z " fill="#111111" transform="translate(200.11328125,71.6796875)"/>
<path d="M0 0 C7.33407175 3.816186 13.1513133 10.23181008 16 18 C20.27419561 40.80424126 11.19845366 65.24046718 -1.11328125 84.265625 C-8.65770989 94.89318173 -17.60526623 104.19222021 -30.875 106.5 C-39.1344266 105.17849174 -45.24177132 100.70116476 -50.4375 94.30078125 C-55.61988662 86.66971695 -55.06974481 75.78970449 -53.67919922 66.96386719 C-48.93139915 42.93065324 -37.13924091 21.46221675 -19 5 C-18.44054687 4.45214844 -17.88109375 3.90429688 -17.3046875 3.33984375 C-12.2439666 -1.04855915 -6.40395673 -1.39500204 0 0 Z M-6.1875 18.125 C-11.42519199 22.97014548 -15.16366467 29.04091577 -19 35 C-19.62132812 35.9384375 -20.24265625 36.876875 -20.8828125 37.84375 C-30.0666191 52.50489418 -36.90156786 71.56968805 -36 89 C-34.15274948 89.69159401 -34.15274948 89.69159401 -32 90 C-30.515 89.01 -30.515 89.01 -29 88 C-29 87.34 -29 86.68 -29 86 C-28.34 86 -27.68 86 -27 86 C-16.28043622 74.03397532 -8.69237222 58.89705921 -3 44 C-2.37931641 42.38158203 -2.37931641 42.38158203 -1.74609375 40.73046875 C1.03715436 32.71044721 1.45593885 25.44753361 1 17 C-2.59388101 15.73707435 -2.72895434 15.81930289 -6.1875 18.125 Z " fill="#111111" transform="translate(255,71)"/>
<path d="M0 0 C1.89952346 -0.08521741 3.79663573 -0.23729084 5.6875 -0.4375 C6.68136719 -0.53933594 7.67523438 -0.64117187 8.69921875 -0.74609375 C9.45847656 -0.82988281 10.21773438 -0.91367188 11 -1 C10.67 -0.01 10.34 0.98 10 2 C9.34 2 8.68 2 8 2 C8 2.99 8 3.98 8 5 C7.34 5 6.68 5 6 5 C5.62875 5.7734375 5.62875 5.7734375 5.25 6.5625 C4.8375 7.366875 4.425 8.17125 4 9 C3.443125 10.175625 2.88625 11.35125 2.3125 12.5625 C-0.03052237 16.66719332 -2.55144999 17.62499363 -7 19 C-7.99 19 -8.98 19 -10 19 C-10 19.66 -10 20.32 -10 21 C-12.53851462 21.84416163 -15.08010854 22.67547299 -17.625 23.5 C-18.33785156 23.73847656 -19.05070312 23.97695312 -19.78515625 24.22265625 C-23.99306024 25.57381808 -27.52236798 26.28250044 -32 26 C-32.26554687 26.69480469 -32.53109375 27.38960937 -32.8046875 28.10546875 C-34.10603076 31.25676076 -35.58703383 34.27000171 -37.125 37.3125 C-37.66382813 38.38113281 -38.20265625 39.44976562 -38.7578125 40.55078125 C-39.16773438 41.35902344 -39.57765625 42.16726562 -40 43 C-39.01 42.67 -38.02 42.34 -37 42 C-31.21055572 40.3592668 -25.4352703 40.06201605 -20 43 C-17.1875 45 -17.1875 45 -15 47 C-15 47.66 -15 48.32 -15 49 C-14.34 49 -13.68 49 -13 49 C-9.98575693 56.15882729 -8.86792007 61.34875949 -11.5625 68.875 C-15.8806001 78.93525448 -24.22958088 87.57130487 -33 94 C-33.66 94 -34.32 94 -35 94 C-35 94.66 -35 95.32 -35 96 C-37.29481341 97.84012299 -39.57837408 99.52766504 -42 101.1875 C-42.71244873 101.67710205 -43.42489746 102.1667041 -44.15893555 102.67114258 C-51.28313858 107.42035102 -61.19704847 114 -70 114 C-70 113.34 -70 112.68 -70 112 C-70.54527344 112.19335938 -71.09054688 112.38671875 -71.65234375 112.5859375 C-77.0438052 114.44760453 -82.40921726 115.87655666 -88 117 C-88 116.34 -88 115.68 -88 115 C-87.1646875 114.690625 -87.1646875 114.690625 -86.3125 114.375 C-83.73305999 112.84127892 -82.32141414 110.97886262 -80.48828125 108.640625 C-78.79725873 106.77650568 -76.99279756 105.44900384 -74.9375 104 C-71.25859223 101.3811165 -69.35673742 98.80703737 -67 95 C-66.34 95 -65.68 95 -65 95 C-65 94.34 -65 93.68 -65 93 C-62.525 92.01 -62.525 92.01 -60 91 C-60 90.34 -60 89.68 -60 89 C-58.13671875 87.37890625 -58.13671875 87.37890625 -55.6875 85.5625 C-52.36091496 83.09023023 -52.36091496 83.09023023 -49.33203125 80.27734375 C-48 79 -48 79 -46 79 C-46 78.34 -46 77.68 -46 77 C-44.4609375 75.5546875 -44.4609375 75.5546875 -42.375 73.875 C-37.05625822 69.35784165 -32.99543143 64.31280176 -30 58 C-39.08533548 59.15725756 -46.21409522 61.87875775 -53.875 66.875 C-56 68 -56 68 -58.0625 68.0625 C-61.04164248 66.4287767 -62.25449879 63.85098531 -64 61 C-64.66 60.34 -65.32 59.68 -66 59 C-66.15712067 49.88700129 -61.79523211 42.05878014 -58 34 C-57.05255734 31.97770328 -56.10526481 29.95533649 -55.15820312 27.93286133 C-54.55896634 26.65755015 -53.95617294 25.38390329 -53.34960938 24.11206055 C-51.80576437 20.85073192 -50.47646725 17.62185012 -49.375 14.1875 C-48 11 -48 11 -45.98486328 9.9519043 C-41.98064736 8.67491772 -37.9420504 7.6086027 -33.8671875 6.58203125 C-32.99353546 6.36052902 -32.11988342 6.13902679 -31.21975708 5.91081238 C-29.37956764 5.44588725 -27.53888814 4.98289801 -25.69775391 4.52172852 C-22.87570765 3.8126778 -20.05703917 3.09113741 -17.23828125 2.36914062 C-15.4481104 1.91850051 -13.65775196 1.46860484 -11.8671875 1.01953125 C-11.02340546 0.80190628 -10.17962341 0.58428131 -9.31027222 0.36006165 C-8.13357468 0.06932014 -8.13357468 0.06932014 -6.93310547 -0.22729492 C-5.8998262 -0.48805061 -5.8998262 -0.48805061 -4.84567261 -0.7540741 C-3 -1 -3 -1 0 0 Z " fill="#101010" transform="translate(149,66)"/>
<path d="M0 0 C-0.28576908 3.38257277 -0.6413049 4.67862943 -3.21484375 6.984375 C-4.11332031 7.56703125 -5.01179688 8.1496875 -5.9375 8.75 C-7.28134766 9.63945313 -7.28134766 9.63945313 -8.65234375 10.546875 C-11 12 -11 12 -13 13 C-13 14.98 -13 16.96 -13 19 C-12.236875 18.67 -11.47375 18.34 -10.6875 18 C-8 17 -8 17 -5 17 C-5.34021964 20.17538332 -6.02466604 21.02276865 -8.4375 23.25 C-11 25 -11 25 -13 25 C-13 31.6 -13 38.2 -13 45 C-14.98 45.495 -14.98 45.495 -17 46 C-20.56001766 37.48691428 -20.69698663 29.10084996 -21 20 C-24.96 20.495 -24.96 20.495 -29 21 C-29.33467392 17.8398004 -29.37552574 16.47096815 -27.35546875 13.9375 C-26.28232422 12.9784375 -26.28232422 12.9784375 -25.1875 12 C-22.18767865 9.19662713 -19.85873349 6.71746699 -18 3 C-17.43152344 3.2165625 -16.86304688 3.433125 -16.27734375 3.65625 C-12.55737469 4.21775476 -10.34226036 2.00989547 -7.31640625 0.03125 C-4.45076342 -1.24451679 -2.95552598 -0.8757114 0 0 Z " fill="#010101" transform="translate(61,23)"/>
<path d="M0 0 C0.66 0.33 1.32 0.66 2 1 C1.4740625 2.36125 1.4740625 2.36125 0.9375 3.75 C-0.00170571 7.00591313 0.04485324 7.92749994 1 11 C-1.10251861 11.67184618 -3.20707763 12.33730968 -5.3125 13 C-7.07013672 13.556875 -7.07013672 13.556875 -8.86328125 14.125 C-12 15 -12 15 -15 15 C-15 14.34 -15 13.68 -15 13 C-14.443125 12.79375 -13.88625 12.5875 -13.3125 12.375 C-10.72070907 10.83393513 -9.2230281 8.94574747 -7.37109375 6.59765625 C-5.18207635 4.04692088 -2.63233073 2.08137778 0 0 Z " fill="#070707" transform="translate(76,168)"/>
<path d="M0 0 C0 3.39593478 -0.52165948 4.06619881 -2.5 6.6875 C-2.9640625 7.31011719 -3.428125 7.93273437 -3.90625 8.57421875 C-4.2671875 9.04472656 -4.628125 9.51523438 -5 10 C-4.67 10.66 -4.34 11.32 -4 12 C-2.906875 11.835 -1.81375 11.67 -0.6875 11.5 C3 11 3 11 6 11 C6 11.99 6 12.98 6 14 C5.40832031 14.06058594 4.81664062 14.12117187 4.20703125 14.18359375 C0.09021792 14.62012371 -3.95544533 15.08671346 -8 16 C-8 15.01 -8 14.02 -8 13 C-8.66 13 -9.32 13 -10 13 C-8.48446596 9.52224821 -6.4226544 7.0442016 -3.875 4.25 C-3.15054688 3.45078125 -2.42609375 2.6515625 -1.6796875 1.828125 C-0.84824219 0.92320312 -0.84824219 0.92320312 0 0 Z " fill="#060606" transform="translate(148,169)"/>
<path d="M0 0 C0 0.66 0 1.32 0 2 C0.66 2.66 1.32 3.32 2 4 C0.39850114 4.67305018 -1.20631029 5.33822227 -2.8125 6 C-3.70582031 6.37125 -4.59914063 6.7425 -5.51953125 7.125 C-8 8 -8 8 -11 8 C-11.33 6.68 -11.66 5.36 -12 4 C-10.3767313 3.3291288 -8.75132422 2.66342971 -7.125 2 C-6.22007813 1.62875 -5.31515625 1.2575 -4.3828125 0.875 C-2 0 -2 0 0 0 Z " fill="#030303" transform="translate(90,172)"/>
<path d="M0 0 C0 3.4682737 -0.87317501 5.91266487 -2 9.1875 C-2.37125 10.27417969 -2.7425 11.36085938 -3.125 12.48046875 C-3.41375 13.31191406 -3.7025 14.14335938 -4 15 C-3.07316406 15.04898438 -2.14632812 15.09796875 -1.19140625 15.1484375 C0.00613281 15.22320312 1.20367187 15.29796875 2.4375 15.375 C4.22994141 15.47941406 4.22994141 15.47941406 6.05859375 15.5859375 C7.51458984 15.79089844 7.51458984 15.79089844 9 16 C9.33 16.66 9.66 17.32 10 18 C4.72 18 -0.56 18 -6 18 C-7.15941038 14.52176885 -6.70820884 12.54104422 -6 9 C-5.01 9 -4.02 9 -3 9 C-2.814375 7.329375 -2.814375 7.329375 -2.625 5.625 C-2 2 -2 2 0 0 Z " fill="#070707" transform="translate(72,109)"/>
<path d="M0 0 C0 0.99 0 1.98 0 3 C-1.98 3.99 -1.98 3.99 -4 5 C-2.68 3.35 -1.36 1.7 0 0 Z M-7 6 C-6.34 6.33 -5.68 6.66 -5 7 C-8.44397641 12.7809604 -8.44397641 12.7809604 -11.0625 13.8125 C-11.701875 13.874375 -12.34125 13.93625 -13 14 C-13.99 14.33 -14.98 14.66 -16 15 C-16 14.34 -16 13.68 -16 13 C-14.35 12.34 -12.7 11.68 -11 11 C-11 10.34 -11 9.68 -11 9 C-9 7.375 -9 7.375 -7 6 Z M-18 15 C-17.34 15.33 -16.68 15.66 -16 16 C-17.65 17.65 -19.3 19.3 -21 21 C-19.125 16.125 -19.125 16.125 -18 15 Z " fill="#060606" transform="translate(100,146)"/>
<path d="M0 0 C0.99 0.33 1.98 0.66 3 1 C3.33 1.99 3.66 2.98 4 4 C3.505 4.350625 3.01 4.70125 2.5 5.0625 C0.26936034 7.94374289 0.80019379 10.47009026 1 14 C1.66 14.33 2.32 14.66 3 15 C2.67 15.66 2.34 16.32 2 17 C1.01 17 0.02 17 -1 17 C-0.67 14.03 -0.34 11.06 0 8 C-0.66 8 -1.32 8 -2 8 C-1.34 5.36 -0.68 2.72 0 0 Z " fill="#050505" transform="translate(27,178)"/>
<path d="M0 0 C0.66 0.33 1.32 0.66 2 1 C2.99 0.67 3.98 0.34 5 0 C3.68775452 3.93673644 2.08089673 6.22719294 -1 9 C-1.66 8.67 -2.32 8.34 -3 8 C-1.125 1.125 -1.125 1.125 0 0 Z " fill="#040404" transform="translate(42,176)"/>
<path d="M0 0 C0 0.66 0 1.32 0 2 C-2.30166787 3.79083852 -4.60238901 5.47259242 -7 7.125 C-7.66773437 7.59292969 -8.33546875 8.06085938 -9.0234375 8.54296875 C-10.67814266 9.70126236 -12.33855307 10.85139765 -14 12 C-14.66 11.67 -15.32 11.34 -16 11 C-15.278125 10.443125 -14.55625 9.88625 -13.8125 9.3125 C-10.95165155 7.04594793 -10.95165155 7.04594793 -8.4375 4.375 C-5.79171221 1.79705292 -3.76997466 0 0 0 Z " fill="#050505" transform="translate(114,160)"/>
<path d="M0 0 C0 0.66 0 1.32 0 2 C0.99 2.33 1.98 2.66 3 3 C-2.41538462 6.07692308 -2.41538462 6.07692308 -5.375 5.6875 C-5.91125 5.460625 -6.4475 5.23375 -7 5 C-6.34 4.67 -5.68 4.34 -5 4 C-5 3.01 -5 2.02 -5 1 C-2 0 -2 0 0 0 Z " fill="#0B0B0B" transform="translate(234,170)"/>
<path d="M0 0 C-0.33 0.99 -0.66 1.98 -1 3 C-2.64232772 3.72455635 -4.31624835 4.37774395 -6 5 C-7.2167177 5.71508847 -8.42480837 6.44500857 -9.625 7.1875 C-10.73875 7.785625 -11.8525 8.38375 -13 9 C-13.99 8.67 -14.98 8.34 -16 8 C-15.40832031 7.67386719 -14.81664062 7.34773437 -14.20703125 7.01171875 C-10.78864136 5.1212878 -7.38755883 3.23913204 -4.0625 1.1875 C-2 0 -2 0 0 0 Z " fill="#050505" transform="translate(178,130)"/>
<path d="M0 0 C0.66 0 1.32 0 2 0 C2.33 1.65 2.66 3.3 3 5 C0.03 5.66 -2.94 6.32 -6 7 C-6 6.34 -6 5.68 -6 5 C-5.38125 4.731875 -4.7625 4.46375 -4.125 4.1875 C-1.7004767 3.04443152 -1.7004767 3.04443152 0 0 Z " fill="#010101" transform="translate(67,176)"/>
<path d="M0 0 C0 2 0 2 -1.5 3.625 C-1.995 4.07875 -2.49 4.5325 -3 5 C-5.475 4.01 -5.475 4.01 -8 3 C-8.33 3.66 -8.66 4.32 -9 5 C-9.66 4.01 -10.32 3.02 -11 2 C-7.12315913 0.80712589 -4.08378077 0 0 0 Z " fill="#090909" transform="translate(117,73)"/>
<path d="M0 0 C0.33 0.66 0.66 1.32 1 2 C-0.43522725 5.94687492 -1.67830089 9.31100548 -5 12 C-5.66 11.67 -6.32 11.34 -7 11 C-4.69 7.37 -2.38 3.74 0 0 Z " fill="#080808" transform="translate(174,135)"/>
<path d="M0 0 C0.66 0.33 1.32 0.66 2 1 C-0.31 5.29 -2.62 9.58 -5 14 C-6 10 -6 10 -4.78515625 7.421875 C-4.21667969 6.54015625 -3.64820313 5.6584375 -3.0625 4.75 C-2.49660156 3.85796875 -1.93070313 2.9659375 -1.34765625 2.046875 C-0.90292969 1.37140625 -0.45820313 0.6959375 0 0 Z " fill="#060606" transform="translate(236,103)"/>
<path d="M0 0 C1.32 0.66 2.64 1.32 4 2 C3.67 2.99 3.34 3.98 3 5 C2.34 5 1.68 5 1 5 C0.67 5.99 0.34 6.98 0 8 C-0.33 7.34 -0.66 6.68 -1 6 C-0.67 5.01 -0.34 4.02 0 3 C-0.99 2.67 -1.98 2.34 -3 2 C-2.01 1.34 -1.02 0.68 0 0 Z " fill="#090909" transform="translate(194,82)"/>
<path d="M0 0 C0.66 0 1.32 0 2 0 C0.66511872 3.59391114 -0.96022723 6.75490696 -3 10 C-3.66 9.67 -4.32 9.34 -5 9 C-5 6 -5 6 -3.0625 3.9375 C-2.381875 3.298125 -1.70125 2.65875 -1 2 C-0.67 1.34 -0.34 0.68 0 0 Z " fill="#080808" transform="translate(190,143)"/>
</svg>
